<?xml version="1.0" encoding="UTF-8" standalone="no"?>
<!-- Created with Inkscape (http://www.inkscape.org/) -->

<svg
   version="1.1"
   id="svg1"
   width="210"
   height="260"
   viewBox="0 0 89.222784 139.31623"
   sodipodi:docname="illustration-1a.svg"
   inkscape:version="1.3 (0e150ed, 2023-07-21)"
   xmlns:inkscape="http://www.inkscape.org/namespaces/inkscape"
   xmlns:sodipodi="http://sodipodi.sourceforge.net/DTD/sodipodi-0.dtd"
   xmlns="http://www.w3.org/2000/svg"
   xmlns:svg="http://www.w3.org/2000/svg">
  <defs
     id="defs1" />
  <sodipodi:namedview
     id="namedview1"
     pagecolor="#ffffff"
     bordercolor="#000000"
     borderopacity="0.25"
     inkscape:showpageshadow="2"
     inkscape:pageopacity="0.0"
     inkscape:pagecheckerboard="0"
     inkscape:deskcolor="#d1d1d1"
     inkscape:zoom="1"
     inkscape:cx="35.5"
     inkscape:cy="4.5"
     inkscape:window-width="1392"
     inkscape:window-height="804"
     inkscape:window-x="35"
     inkscape:window-y="25"
     inkscape:window-maximized="0"
     inkscape:current-layer="g1" />
  <g
     inkscape:groupmode="layer"
     inkscape:label="Image"
     id="g1"
     transform="translate(-10.88,-9.4586276)">
    <path
       style="fill:#000000;stroke-width:2.51229"
       d="m 47.632296,146.13422 c -5.957861,-0.55883 -14.279354,-1.92589 -18.492207,-3.03792 -4.212853,-1.11203 -10.234704,-3.23949 -13.38189,-4.72768 -3.147185,-1.48819 -6.5616223,-3.38228 -7.5876375,-4.20909 -1.17111,-0.94373 -1.89177,-2.42049 -1.936105,-3.96743 -0.04101,-1.43115 1.555288,-5.77795 3.8079235,-10.36912 2.133201,-4.34774 7.300286,-14.73767 11.482412,-23.088715 C 29.12866,81.550525 29.12866,81.550525 24.723565,73.112618 22.300764,68.471766 17.316174,58.909424 13.646702,51.862965 9.9772277,44.816505 5.9384075,37.501754 4.6715455,35.607961 c -1.266861,-1.893793 -2.303384,-4.314949 -2.303384,-5.380349 0,-1.471248 1.061116,-2.610482 4.412437,-4.737266 2.4268422,-1.540101 6.1806555,-3.689088 8.3418095,-4.775529 2.161155,-1.086438 6.077808,-2.730207 8.703674,-3.652817 2.625869,-0.922614 7.498422,-2.284059 10.827897,-3.025436 4.61147,-1.026842 10.091531,-1.351165 23.003647,-1.361412 16.950056,-0.01347 16.950056,-0.01347 27.039374,3.449717 5.549125,1.90474 12.087004,4.564086 14.528617,5.909657 2.441613,1.345571 5.291033,3.202479 6.332053,4.126457 1.04102,0.923982 2.42936,2.703396 3.0852,3.954256 0.65583,1.250859 0.9942,2.786754 0.75192,3.413101 -0.24227,0.626346 -2.11121,3.677853 -4.15319,6.781124 -2.04198,3.103269 -5.22977,8.366 -7.083981,11.694956 -1.854215,3.328956 -4.587388,8.262277 -6.073719,10.962935 -1.486331,2.700657 -4.119643,7.274094 -5.851805,10.163191 -1.732162,2.889099 -3.149386,5.824458 -3.149386,6.523024 0,0.698565 4.291691,9.685161 9.537093,19.970211 5.245401,10.285039 10.754288,20.681899 12.241978,23.104119 1.4877,2.42222 3.23211,5.0201 3.87647,5.77306 0.73406,0.85777 0.97944,2.12844 0.65709,3.40262 -0.30322,1.19853 -1.91688,2.91428 -3.92961,4.17824 -1.87831,1.17954 -5.957613,3.11657 -9.06512,4.30449 -3.10751,1.18793 -8.73735,2.72616 -12.510755,3.4183 -3.773405,0.69212 -7.950383,1.48168 -9.282173,1.75454 -1.331791,0.27287 -5.508769,0.7425 -9.282174,1.04363 -3.991006,0.3185 -11.391776,0.12251 -17.693212,-0.46856 z m 29.800395,-3.25652 c 2.441615,-0.41497 7.334173,-1.54087 10.87235,-2.502 3.538176,-0.96113 9.026765,-2.93635 12.196859,-4.38939 3.17009,-1.45304 6.03669,-3.07993 6.37022,-3.6153 0.36757,-0.59002 -0.46251,-2.07763 -2.10754,-3.77696 -1.49268,-1.54195 -3.98521,-3.49641 -5.538963,-4.34323 -1.553753,-0.84683 -3.36983,-1.88462 -4.035725,-2.30621 -0.665895,-0.42159 -3.571619,-1.81442 -6.457164,-3.09519 -2.885545,-1.28077 -8.633622,-3.09405 -12.773507,-4.0295 -4.139882,-0.93545 -8.376611,-1.70082 -9.414951,-1.70082 -1.383641,0 -2.397552,0.90896 -3.796025,3.40311 -1.049471,1.87172 -2.563426,5.11469 -3.364344,7.20661 -0.80092,2.09192 -1.806286,3.80348 -2.234146,3.80348 -0.42786,0 -1.396662,-1.12111 -2.152892,-2.49136 -0.756229,-1.37025 -2.729102,-4.61322 -4.384157,-7.20661 -2.805022,-4.39531 -3.215756,-4.71486 -6.053591,-4.70962 -1.674421,0.003 -6.13173,0.73798 -9.905136,1.6331 -3.773405,0.89513 -9.72662,2.76006 -13.229364,4.14429 -3.502744,1.38424 -7.420355,3.39474 -8.705802,4.46778 -1.285447,1.07304 -2.8371283,2.9101 -3.4481783,4.08236 -0.7705872,1.47831 -0.8690412,2.56029 -0.321327,3.53122 0.43432,0.76993 2.1908853,2.27738 3.9034813,3.34991 1.712596,1.07252 5.229981,2.71176 7.816414,3.64274 2.586432,0.93098 6.885357,2.33491 9.553169,3.11983 2.66781,0.78493 7.934435,1.84492 11.70361,2.35553 3.769173,0.5106 8.124298,1.01124 9.678053,1.1125 1.553755,0.10124 7.001987,-0.0669 12.107182,-0.37383 5.105196,-0.30687 11.279859,-0.89746 13.721474,-1.31244 z M 92.240108,103.54678 C 86.740292,92.556767 81.920415,83.368715 81.529272,83.128896 c -0.39114,-0.239819 -3.814842,5.238796 -7.608224,12.174702 -3.793382,6.935902 -7.130634,13.226222 -7.416113,13.978482 -0.380814,1.00349 -0.01589,1.46424 1.370409,1.73004 1.039205,0.19926 4.976796,1.07787 8.750201,1.95247 3.773405,0.8746 8.866138,2.3432 11.317184,3.26355 2.451046,0.92034 6.446416,2.9028 8.8786,4.40545 2.432188,1.50266 4.646311,2.76876 4.920301,2.81357 0.27398,0.0448 -4.001706,-8.91036 -9.501522,-19.90038 z m -32.145697,14.34667 c 1.101383,-2.15621 2.002515,-4.11253 2.002515,-4.34737 0,-0.23484 -2.542508,-0.42698 -5.650018,-0.42698 -3.356603,0 -5.650019,0.33646 -5.650019,0.8289 0,0.4559 0.61188,1.80714 1.359733,3.00275 0.747853,1.19562 2.071902,2.97349 2.942335,3.95082 0.870431,0.97734 1.89993,1.58241 2.287771,1.34462 0.387843,-0.2378 1.6063,-2.19653 2.707683,-4.35274 z m -43.413388,0.41014 c 0.966749,-0.67176 5.315349,-2.25672 9.663555,-3.52213 4.348206,-1.26541 9.721906,-2.67352 11.941556,-3.12914 2.21965,-0.45562 4.762159,-0.7624 5.650019,-0.68173 0.981077,0.0891 1.524486,-0.27765 1.385346,-0.93507 -0.125914,-0.59496 -3.548549,-6.62283 -7.605848,-13.395266 -5.842091,-9.751619 -7.599729,-12.130077 -8.447872,-11.431771 -0.58903,0.484969 -1.070964,1.184421 -1.070964,1.554336 0,0.369914 -3.215481,7.262152 -7.145512,15.316081 -3.930032,8.05392 -7.36918,15.27407 -7.64255,16.04478 -0.301025,0.84867 -0.100388,1.40129 0.508754,1.40129 0.553184,0 1.796768,-0.54963 2.763516,-1.22138 z m 51.523266,-15.59403 c 2.359051,-4.18383 5.405524,-9.768949 6.769937,-12.41137 1.364412,-2.642421 3.173144,-6.00625 4.019401,-7.475174 1.538654,-2.670769 1.538654,-2.670769 -6.031922,-17.895244 -4.163816,-8.373462 -7.934919,-15.659998 -8.380231,-16.192303 -0.531949,-0.635868 -3.375389,-0.952113 -8.28999,-0.922002 -7.480329,0.04584 -7.480329,0.04584 -9.193911,3.248764 -0.942471,1.761614 -2.899075,5.364918 -4.34801,8.007339 -1.448935,2.642422 -3.249515,5.705228 -4.001288,6.806238 -0.751772,1.101008 -2.706964,4.960578 -4.344869,8.57682 -1.637905,3.616242 -2.952389,7.039379 -2.921077,7.606971 0.0313,0.567593 2.201714,4.455124 4.823113,8.638958 2.621402,4.183834 5.554765,9.048292 6.51859,10.809903 0.963823,1.76161 2.619947,4.56706 3.680274,6.23434 1.927867,3.03141 1.927867,3.03141 9.669333,2.80257 7.741463,-0.22884 7.741463,-0.22884 12.03065,-7.83581 z M 36.21233,67.277091 c 3.247527,-6.275751 6.949546,-12.959924 8.226712,-14.85372 1.277167,-1.893793 2.32212,-3.785526 2.32212,-4.203852 0,-0.418324 -0.721217,-0.76059 -1.602709,-0.76059 -0.881488,0 -3.151585,-0.338355 -5.044659,-0.751899 -1.893071,-0.413546 -6.71089,-1.352329 -10.70626,-2.086189 -3.995371,-0.73386 -8.898779,-1.853902 -10.896465,-2.488984 -1.997685,-0.635079 -4.984046,-1.875664 -6.636361,-2.756854 -3.0042105,-1.602163 -3.0042105,-1.602163 -1.9931923,0.638495 0.5560583,1.232362 2.3373813,4.76297 3.9584953,7.845798 1.621113,3.082825 4.015094,7.586953 5.319958,10.009173 1.304862,2.42222 4.053568,7.769205 6.108235,11.882192 2.054667,4.112987 3.735757,7.806372 3.735757,8.207522 0,0.40115 0.293349,0.729366 0.651888,0.729366 0.35854,0 3.308956,-5.134706 6.556481,-11.410458 z m 60.591853,-16.38689 c 0,-0.147185 1.496251,-2.617916 3.324997,-5.490537 1.82875,-2.87262 3.10217,-5.444001 2.82983,-5.714179 -0.27234,-0.27018 -1.67778,0.08183 -3.123203,0.782212 -1.44543,0.700394 -4.625737,1.997053 -7.067352,2.881463 -2.441615,0.884411 -8.176805,2.170912 -12.744868,2.858893 -4.568062,0.68798 -9.380667,1.250876 -10.694677,1.250876 -1.314011,0 -2.389111,0.363849 -2.389111,0.808556 0,0.444705 3.317025,7.284115 7.371166,15.198684 7.371165,14.39013 7.371165,14.39013 14.932191,1.040876 4.158565,-7.342088 7.561027,-13.469669 7.561027,-13.616844 z M 60.206375,40.143425 c -1.560089,-2.802729 -3.029091,-5.095873 -3.264452,-5.095873 -0.235359,0 -1.857752,2.342147 -3.60531,5.20477 -3.177381,5.20477 -3.177381,5.20477 2.589681,5.605137 3.171882,0.220202 6.070708,0.171207 6.441833,-0.1089 0.371123,-0.280097 -0.601664,-2.802408 -2.161752,-5.605137 z m 14.634905,4.864701 c 4.310822,-0.467136 9.961983,-1.386989 12.558142,-2.044119 2.596155,-0.657127 5.320271,-1.519663 6.053591,-1.916744 0.733317,-0.397081 2.967776,-1.402052 4.965461,-2.233274 1.997686,-0.831219 4.812596,-2.501155 6.255366,-3.710969 1.44277,-1.209813 2.62322,-2.874253 2.62322,-3.698756 0,-0.824504 -0.81724,-2.257292 -1.81608,-3.183974 -0.99884,-0.926684 -3.35183,-2.696263 -5.22887,-3.932395 -1.877051,-1.236134 -7.870106,-3.719074 -13.317904,-5.517648 -5.447799,-1.798575 -12.908504,-3.66445 -16.579346,-4.146392 -3.67084,-0.481941 -9.921327,-0.811082 -13.889968,-0.731422 -3.968641,0.07966 -10.772043,0.643624 -15.11867,1.25325 -4.34663,0.609629 -10.107858,1.823724 -12.802735,2.697988 -2.694875,0.874263 -5.387404,1.589571 -5.9834,1.589571 -0.595996,0 -4.838171,2.039329 -9.427057,4.531841 -6.5815225,3.574835 -8.3434325,4.895264 -8.3434325,6.252826 0,0.946542 0.454019,2.273178 1.008932,2.948076 0.554913,0.674899 2.657264,2.155546 4.6718945,3.290328 2.014627,1.134783 5.828388,2.775176 8.475026,3.645316 2.646635,0.87014 7.492104,2.175691 10.767707,2.901226 3.275601,0.725535 8.768735,1.534361 12.206961,1.797393 6.251321,0.478235 6.251321,0.478235 9.292227,-5.037597 1.672496,-3.033708 3.570345,-6.368204 4.217441,-7.409993 0.985797,-1.58708 1.345431,-1.716896 2.218321,-0.800735 0.57298,0.601387 2.567398,4.066152 4.432041,7.699482 1.864642,3.63333 3.735187,6.606054 4.156766,6.606054 0.421582,0 4.293545,-0.3822 8.604366,-0.849333 z"
       id="path1" />
  </g>
</svg>
