<?xml version="1.0" encoding="utf-8"?>
<svg xmlns="http://www.w3.org/2000/svg" version="1.1" viewBox="0 0 250 150">
	<title>A line drawing of two cones superimposed on each other, with the tip of each cone in the centre of the base of the other.</title>
	<g>
		<path d="m47.632 146.13c-5.9579-0.55883-14.279-1.9259-18.492-3.0379s-10.235-3.2395-13.382-4.7277c-3.1472-1.4882-6.5616-3.3823-7.5876-4.2091-1.1711-0.94373-1.8918-2.4205-1.9361-3.9674-0.04101-1.4312 1.5553-5.778 3.8079-10.369 2.1332-4.3477 7.3003-14.738 11.482-23.089 7.6039-15.184 7.6039-15.184 3.1988-23.622-2.4228-4.6409-7.4074-14.203-11.077-21.25-3.6695-7.0465-7.7083-14.361-8.9752-16.255-1.2669-1.8938-2.3034-4.3149-2.3034-5.3803 0-1.4712 1.0611-2.6105 4.4124-4.7373 2.4268-1.5401 6.1807-3.6891 8.3418-4.7755 2.1612-1.0864 6.0778-2.7302 8.7037-3.6528 2.6259-0.92261 7.4984-2.2841 10.828-3.0254 4.6115-1.0268 10.092-1.3512 23.004-1.3614 16.95-0.01347 16.95-0.01347 27.039 3.4497 5.5491 1.9047 12.087 4.5641 14.529 5.9097s5.291 3.2025 6.3321 4.1265c1.041 0.92398 2.4294 2.7034 3.0852 3.9543 0.65583 1.2509 0.9942 2.7868 0.75192 3.4131-0.24227 0.62635-2.1112 3.6779-4.1532 6.7811-2.042 3.1033-5.2298 8.366-7.084 11.695-1.8542 3.329-4.5874 8.2623-6.0737 10.963-1.4863 2.7007-4.1196 7.2741-5.8518 10.163-1.7322 2.8891-3.1494 5.8245-3.1494 6.523 0 0.69856 4.2917 9.6852 9.5371 19.97 5.2454 10.285 10.754 20.682 12.242 23.104 1.4877 2.4222 3.2321 5.0201 3.8765 5.7731 0.73406 0.85777 0.97944 2.1284 0.65709 3.4026-0.30322 1.1985-1.9169 2.9143-3.9296 4.1782-1.8783 1.1795-5.9576 3.1166-9.0651 4.3045-3.1075 1.1879-8.7374 2.7262-12.511 3.4183-3.7734 0.69212-7.9504 1.4817-9.2822 1.7545-1.3318 0.27287-5.5088 0.7425-9.2822 1.0436-3.991 0.3185-11.392 0.12251-17.693-0.46856zm29.8-3.2565c2.4416-0.41497 7.3342-1.5409 10.872-2.502 3.5382-0.96113 9.0268-2.9364 12.197-4.3894 3.1701-1.453 6.0367-3.0799 6.3702-3.6153 0.36757-0.59002-0.46251-2.0776-2.1075-3.777-1.4927-1.542-3.9852-3.4964-5.539-4.3432-1.5538-0.84683-3.3698-1.8846-4.0357-2.3062s-3.5716-1.8144-6.4572-3.0952-8.6336-3.094-12.774-4.0295c-4.1399-0.93545-8.3766-1.7008-9.415-1.7008-1.3836 0-2.3976 0.90896-3.796 3.4031-1.0495 1.8717-2.5634 5.1147-3.3643 7.2066-0.80092 2.0919-1.8063 3.8035-2.2341 3.8035s-1.3967-1.1211-2.1529-2.4914c-0.75623-1.3702-2.7291-4.6132-4.3842-7.2066-2.805-4.3953-3.2158-4.7149-6.0536-4.7096-1.6744 3e-3 -6.1317 0.73798-9.9051 1.6331-3.7734 0.89513-9.7266 2.7601-13.229 4.1443-3.5027 1.3842-7.4204 3.3947-8.7058 4.4678s-2.8371 2.9101-3.4482 4.0824c-0.77059 1.4783-0.86904 2.5603-0.32133 3.5312 0.43432 0.76993 2.1909 2.2774 3.9035 3.3499 1.7126 1.0725 5.23 2.7118 7.8164 3.6427 2.5864 0.93098 6.8854 2.3349 9.5532 3.1198 2.6678 0.78493 7.9344 1.8449 11.704 2.3555 3.7692 0.5106 8.1243 1.0112 9.6781 1.1125 1.5538 0.10124 7.002-0.0669 12.107-0.37383 5.1052-0.30687 11.28-0.89746 13.721-1.3124zm14.807-39.331c-5.4998-10.99-10.32-20.178-10.711-20.418-0.39114-0.23982-3.8148 5.2388-7.6082 12.175-3.7934 6.9359-7.1306 13.226-7.4161 13.978-0.38081 1.0035-0.01589 1.4642 1.3704 1.73 1.0392 0.19926 4.9768 1.0779 8.7502 1.9525s8.8661 2.3432 11.317 3.2636c2.451 0.92034 6.4464 2.9028 8.8786 4.4054 2.4322 1.5027 4.6463 2.7688 4.9203 2.8136 0.27398 0.0448-4.0017-8.9104-9.5015-19.9zm-32.146 14.347c1.1014-2.1562 2.0025-4.1125 2.0025-4.3474s-2.5425-0.42698-5.65-0.42698c-3.3566 0-5.65 0.33646-5.65 0.8289 0 0.4559 0.61188 1.8071 1.3597 3.0028 0.74785 1.1956 2.0719 2.9735 2.9423 3.9508 0.87043 0.97734 1.8999 1.5824 2.2878 1.3446 0.38784-0.2378 1.6063-2.1965 2.7077-4.3527zm-43.413 0.41014c0.96675-0.67176 5.3153-2.2567 9.6636-3.5221s9.7219-2.6735 11.942-3.1291 4.7622-0.7624 5.65-0.68173c0.98108 0.0891 1.5245-0.27765 1.3853-0.93507-0.12591-0.59496-3.5485-6.6228-7.6058-13.395-5.8421-9.7516-7.5997-12.13-8.4479-11.432-0.58903 0.48497-1.071 1.1844-1.071 1.5543 0 0.36991-3.2155 7.2622-7.1455 15.316-3.93 8.0539-7.3692 15.274-7.6426 16.045-0.30102 0.84867-0.10039 1.4013 0.50875 1.4013 0.55318 0 1.7968-0.54963 2.7635-1.2214zm51.523-15.594c2.3591-4.1838 5.4055-9.7689 6.7699-12.411 1.3644-2.6424 3.1731-6.0062 4.0194-7.4752 1.5387-2.6708 1.5387-2.6708-6.0319-17.895-4.1638-8.3735-7.9349-15.66-8.3802-16.192-0.53195-0.63587-3.3754-0.95211-8.29-0.922-7.4803 0.04584-7.4803 0.04584-9.1939 3.2488-0.94247 1.7616-2.8991 5.3649-4.348 8.0073-1.4489 2.6424-3.2495 5.7052-4.0013 6.8062-0.75177 1.101-2.707 4.9606-4.3449 8.5768s-2.9524 7.0394-2.9211 7.607c0.0313 0.56759 2.2017 4.4551 4.8231 8.639 2.6214 4.1838 5.5548 9.0483 6.5186 10.81 0.96382 1.7616 2.6199 4.5671 3.6803 6.2343 1.9279 3.0314 1.9279 3.0314 9.6693 2.8026 7.7415-0.22884 7.7415-0.22884 12.031-7.8358zm-31.992-35.432c3.2475-6.2758 6.9495-12.96 8.2267-14.854 1.2772-1.8938 2.3221-3.7855 2.3221-4.2039 0-0.41832-0.72122-0.76059-1.6027-0.76059-0.88149 0-3.1516-0.33836-5.0447-0.7519-1.8931-0.41355-6.7109-1.3523-10.706-2.0862-3.9954-0.73386-8.8988-1.8539-10.896-2.489-1.9977-0.63508-4.984-1.8757-6.6364-2.7569-3.0042-1.6022-3.0042-1.6022-1.9932 0.6385 0.55606 1.2324 2.3374 4.763 3.9585 7.8458 1.6211 3.0828 4.0151 7.587 5.32 10.009 1.3049 2.4222 4.0536 7.7692 6.1082 11.882s3.7358 7.8064 3.7358 8.2075 0.29335 0.72937 0.65189 0.72937c0.35854 0 3.309-5.1347 6.5565-11.41zm60.592-16.387c0-0.14718 1.4963-2.6179 3.325-5.4905 1.8288-2.8726 3.1022-5.444 2.8298-5.7142-0.27234-0.27018-1.6778 0.08183-3.1232 0.78221-1.4454 0.70039-4.6257 1.9971-7.0674 2.8815-2.4416 0.88441-8.1768 2.1709-12.745 2.8589-4.5681 0.68798-9.3807 1.2509-10.695 1.2509-1.314 0-2.3891 0.36385-2.3891 0.80856 0 0.4447 3.317 7.2841 7.3712 15.199 7.3712 14.39 7.3712 14.39 14.932 1.0409 4.1586-7.3421 7.561-13.47 7.561-13.617zm-36.598-10.747c-1.5601-2.8027-3.0291-5.0959-3.2645-5.0959-0.23536 0-1.8578 2.3421-3.6053 5.2048-3.1774 5.2048-3.1774 5.2048 2.5897 5.6051 3.1719 0.2202 6.0707 0.17121 6.4418-0.1089 0.37112-0.2801-0.60166-2.8024-2.1618-5.6051zm14.635 4.8647c4.3108-0.46714 9.962-1.387 12.558-2.0441 2.5962-0.65713 5.3203-1.5197 6.0536-1.9167 0.73332-0.39708 2.9678-1.4021 4.9655-2.2333 1.9977-0.83122 4.8126-2.5012 6.2554-3.711 1.4428-1.2098 2.6232-2.8743 2.6232-3.6988 0-0.8245-0.81724-2.2573-1.8161-3.184-0.99884-0.92668-3.3518-2.6963-5.2289-3.9324-1.8771-1.2361-7.8701-3.7191-13.318-5.5176-5.4478-1.7986-12.909-3.6644-16.579-4.1464-3.6708-0.48194-9.9213-0.81108-13.89-0.73142s-10.772 0.64362-15.119 1.2532c-4.3466 0.60963-10.108 1.8237-12.803 2.698-2.6949 0.87426-5.3874 1.5896-5.9834 1.5896s-4.8382 2.0393-9.4271 4.5318c-6.5815 3.5748-8.3434 4.8953-8.3434 6.2528 0 0.94654 0.45402 2.2732 1.0089 2.9481 0.55491 0.6749 2.6573 2.1555 4.6719 3.2903 2.0146 1.1348 5.8284 2.7752 8.475 3.6453 2.6466 0.87014 7.4921 2.1757 10.768 2.9012 3.2756 0.72554 8.7687 1.5344 12.207 1.7974 6.2513 0.47824 6.2513 0.47824 9.2922-5.0376 1.6725-3.0337 3.5703-6.3682 4.2174-7.41 0.9858-1.5871 1.3454-1.7169 2.2183-0.80074 0.57298 0.60139 2.5674 4.0662 4.432 7.6995 1.8646 3.6333 3.7352 6.6061 4.1568 6.6061 0.42158 0 4.2935-0.3822 8.6044-0.84933z" stroke-width="2.5123"/>
	</g>
</svg>
